<svg width="60" height="60" fill="none" xmlns="http://www.w3.org/2000/svg"><path d="M46.202 58.71H13.798a3.812 3.812 0 01-3.813-3.81V5.1a3.812 3.812 0 013.813-3.812h32.404A3.812 3.812 0 0150.014 5.1v49.8a3.812 3.812 0 01-3.812 3.812zm-18.108-6.79h3.812" stroke="#BDBDBD" stroke-width="2" stroke-miterlimit="10" stroke-linecap="round" stroke-linejoin="round"/><path d="M18.563 20.47l4.765-11.437 4.765 11.436M19.76 17.61h7.14m14.536 6.671a4.765 4.765 0 01-4.765-4.765 4.765 4.765 0 01-4.766 4.765m.953-6.671h7.625m-3.813 1.906v-6.671M18.563 37.624h23.826m-23.826-6.671h23.826M18.563 44.296h23.826" stroke="#BDBDBD" stroke-width="2" stroke-miterlimit="10" stroke-linecap="round" stroke-linejoin="round"/></svg>