<svg width="90" height="90" fill="none" xmlns="http://www.w3.org/2000/svg"><path d="M69.303 88.066H20.697a5.718 5.718 0 01-5.718-5.718V7.652a5.718 5.718 0 015.718-5.718h48.606a5.718 5.718 0 015.718 5.718v74.696a5.718 5.718 0 01-5.718 5.718z" stroke="#231F20" stroke-width="2" stroke-miterlimit="10" stroke-linecap="round" stroke-linejoin="round"/><path d="M42.14 77.88h5.72M27.845 30.704l7.148-17.155 7.148 17.155M29.64 26.415h10.71m21.805 10.007a7.148 7.148 0 01-7.148-7.148c0 3.948-3.2 7.148-7.148 7.148m1.429-10.007h11.437m-5.718 2.86V19.268" stroke="#BDBDBD" stroke-width="2" stroke-miterlimit="10" stroke-linecap="round" stroke-linejoin="round"/><path d="M27.845 56.437h35.74M27.845 46.43h35.74m-35.74 20.014h35.74" stroke="#231F20" stroke-width="2" stroke-miterlimit="10" stroke-linecap="round" stroke-linejoin="round"/></svg>