<?xml version="1.0" encoding="utf-8"?><svg viewBox="0 0 30 30" xmlns="http://www.w3.org/2000/svg" xmlns:xlink="http://www.w3.org/1999/xlink"><style>:root>svg{display:none}:root>svg:target{display:block}</style><svg fill="none" viewBox="0 0 17 10" id="icon-caret" xmlns="http://www.w3.org/2000/svg"><path d="M1 1.25l7.5 7.5 7.5-7.5" stroke="currentColor"/></svg><svg fill="none" viewBox="0 0 30 30" id="icon-facebook" xmlns="http://www.w3.org/2000/svg"><path d="M22.5 3.75h-4.23a5.77 5.77 0 00-5.77 5.77v2.98h-5v5h5v8.75h5V17.5h5v-5h-5V9.904c0-.637.517-1.154 1.154-1.154H22.5v-5z" fill="#BDBDBD"/></svg><svg fill="none" viewBox="0 0 30 30" id="icon-instagram" xmlns="http://www.w3.org/2000/svg"><path fill-rule="evenodd" clip-rule="evenodd" d="M8.266 2.499a5.77 5.77 0 00-5.769 5.77v13.46a5.77 5.77 0 005.77 5.77h13.46a5.77 5.77 0 005.77-5.77V8.27a5.77 5.77 0 00-5.77-5.77H8.268zm14.231 6.25a1.25 1.25 0 100-2.5 1.25 1.25 0 000 2.5zm-1.25 6.25a6.25 6.25 0 11-12.5 0 6.25 6.25 0 0112.5 0zm-6.25 3.75a3.75 3.75 0 100-7.5 3.75 3.75 0 000 7.5z" fill="#BDBDBD"/></svg><svg fill="none" viewBox="0 0 30 30" id="icon-linkedin" xmlns="http://www.w3.org/2000/svg"><path fill-rule="evenodd" clip-rule="evenodd" d="M7.497 4.999a2.5 2.5 0 11-5 0 2.5 2.5 0 015 0zm0 5.625v16.875h-5V10.624h5zm3.75 0h5v1.052a7.5 7.5 0 0110 7.073v8.75h-5v-8.75a2.5 2.5 0 00-5 0v8.75h-5V10.624z" fill="#BDBDBD"/></svg><svg fill="none" viewBox="0 0 11 20" id="icon-play" xmlns="http://www.w3.org/2000/svg"><path d="M11 10L.5.474v19.052L11 10z" fill="#fff"/></svg><svg fill="none" viewBox="0 0 30 30" id="icon-telegram" xmlns="http://www.w3.org/2000/svg"><path d="M3.622 13.495l19.236-8.313a1.25 1.25 0 011.73 1.343l-2.63 16.595c-.162 1.025-1.431 1.417-2.143.662l-4.317-4.572a2.5 2.5 0 01-.156-3.25l3.048-3.922c.174-.224-.101-.519-.337-.36l-6.06 4.064a5 5 0 01-3.5.796l-4.554-.658c-1.248-.18-1.474-1.885-.317-2.385z" fill="#BDBDBD"/></svg><svg fill="none" viewBox="0 0 30 30" id="icon-youtube" xmlns="http://www.w3.org/2000/svg"><path fill-rule="evenodd" clip-rule="evenodd" d="M6.04 3.75a4.615 4.615 0 00-4.615 4.615v13.27A4.615 4.615 0 006.04 26.25h17.92a4.615 4.615 0 004.615-4.615V8.365a4.615 4.615 0 00-4.616-4.615H6.04zm13.146 10.218l-6.266-3.133a1.154 1.154 0 00-1.67 1.032v6.266c0 .858.902 1.416 1.67 1.032l6.266-3.133c.85-.425.85-1.639 0-2.064z" fill="#BDBDBD"/></svg></svg>