<?xml version="1.0" encoding="utf-8"?><svg viewBox="0 0 111 50" xmlns="http://www.w3.org/2000/svg" xmlns:xlink="http://www.w3.org/1999/xlink"><style>:root>svg{display:none}:root>svg:target{display:block}</style><svg fill="none" viewBox="0 0 51 8" id="icon-arrow-more" xmlns="http://www.w3.org/2000/svg"><path d="M50.354 4.354a.5.5 0 000-.708L47.172.464a.5.5 0 10-.707.708L49.293 4l-2.828 2.828a.5.5 0 10.707.708l3.182-3.182zM0 4.5h50v-1H0v1z" fill="currentColor"/></svg><svg fill="none" viewBox="0 0 18 38" id="icon-arrow-next" xmlns="http://www.w3.org/2000/svg"><path d="M0 1.425c0 .277.09.463.27.648L15.84 19 .27 35.928a.85.85 0 00-.27.647c0 .555.36.925.9.925.27 0 .45-.093.63-.278l16.2-17.575A.85.85 0 0018 19a.85.85 0 00-.27-.648L1.53.777C1.35.592 1.17.5.9.5c-.54 0-.9.37-.9.925z" fill="currentColor"/></svg><svg fill="none" viewBox="0 0 111 16" id="icon-arrow-next-long" xmlns="http://www.w3.org/2000/svg"><path d="M110.707 8.707a1 1 0 000-1.414L104.343.929a1 1 0 10-1.414 1.414L108.586 8l-5.657 5.657a1 1 0 101.414 1.414l6.364-6.364zM0 9h110V7H0v2z" fill="currentColor"/></svg><svg fill="none" viewBox="0 0 18 38" id="icon-arrow-prev" xmlns="http://www.w3.org/2000/svg"><path d="M18 1.425a.85.85 0 01-.27.648L2.16 19l15.57 16.928c.18.184.27.37.27.647 0 .555-.36.925-.9.925-.27 0-.45-.093-.63-.278L.27 19.647A.85.85 0 010 19a.85.85 0 01.27-.648L16.47.777c.18-.185.36-.277.63-.277.54 0 .9.37.9.925z" fill="currentColor"/></svg><svg fill="none" viewBox="0 0 61 16" id="icon-arrow-prev-long" xmlns="http://www.w3.org/2000/svg"><path d="M.293 8.707a1 1 0 010-1.414L6.657.929A1 1 0 118.07 2.343L2.414 8l5.657 5.657a1 1 0 11-1.414 1.414L.293 8.707zM61 9H1V7h60v2z" fill="currentColor"/></svg><svg fill="none" viewBox="0 0 28 18" id="icon-bathroom" xmlns="http://www.w3.org/2000/svg"><path d="M7.585 14.517h12.83c2.69 0 4.986-2.258 5.428-5.338l.966-6.728-1.01.174a69.654 69.654 0 01-11.798 1.008c-3.95 0-7.894-.337-11.8-1.009L1.19 2.45l.967 6.728c.408 2.855 2.42 5.033 4.9 5.308.175.019.35.03.527.03zM6.618 15.588a4.717 4.717 0 01-.563-.13 5.976 5.976 0 01-.286-.087c-.037-.012-.074-.02-.11-.033-.842.963-1.977 1.502-3.159 1.5a.445.445 0 00-.346.168.613.613 0 00-.154.413.609.609 0 00.144.403A.46.46 0 002.5 18c1.664-.004 3.238-.878 4.285-2.38-.056-.007-.11-.023-.167-.032zM25.5 18a.448.448 0 00.347-.167.614.614 0 00.153-.414.61.61 0 00-.144-.403.458.458 0 00-.356-.177c-1.182.002-2.317-.537-3.159-1.5-.037.013-.075.021-.112.034-.094.031-.188.058-.283.086a4.542 4.542 0 01-.564.13c-.056.009-.111.024-.167.032 1.047 1.502 2.62 2.376 4.285 2.379z" fill="#BDBDBD"/><path d="M27.847.994A.614.614 0 0028 .581c0-.307-.205-.562-.469-.581l-1.732.3A69.521 69.521 0 012.201.3L.47 0a.45.45 0 00-.315.166A.613.613 0 000 .581c0 .32.224.58.5.58.03 0 .058.003.086.01l.077.015 1.685.29a68.656 68.656 0 0023.304 0l1.762-.305a.443.443 0 01.086-.01.448.448 0 00.347-.167z" fill="#BDBDBD"/></svg><svg fill="none" viewBox="0 0 28 18" id="icon-bed" xmlns="http://www.w3.org/2000/svg"><path d="M3.188 5.432c0-1.478 1.189-2.68 2.65-2.68h5.95c.923 0 1.738.48 2.212 1.207a2.642 2.642 0 012.213-1.207h5.95c1.46 0 2.65 1.202 2.65 2.68v.124h.663V2.942C25.476 1.32 24.171 0 22.568 0H5.433C3.829 0 2.524 1.32 2.524 2.942v2.614h.664v-.124zM26.886 6.808H1.114C.5 6.808 0 7.313 0 7.934v6.54c0 .622.5 1.127 1.114 1.127h.464l-.548 1.564a.628.628 0 00.583.835.62.62 0 00.583-.417l.695-1.982h22.218l.695 1.982a.62.62 0 00.79.381.628.628 0 00.376-.799l-.547-1.564h.463c.614 0 1.114-.505 1.114-1.127v-6.54c0-.621-.5-1.126-1.114-1.126z" fill="#BDBDBD"/><path d="M16.212 4.003c-.778 0-1.412.641-1.412 1.43v.123h8.774v-.124c0-.788-.633-1.429-1.412-1.429h-5.95zM5.838 4.003c-.779 0-1.412.641-1.412 1.43v.123H13.2v-.124c0-.788-.633-1.429-1.412-1.429h-5.95z" fill="#BDBDBD"/></svg><svg fill="none" viewBox="0 0 17 10" id="icon-caret" xmlns="http://www.w3.org/2000/svg"><path d="M1 1.25l7.5 7.5 7.5-7.5" stroke="currentColor"/></svg><svg fill="none" viewBox="0 0 17 9" id="icon-caret-grey" xmlns="http://www.w3.org/2000/svg"><path d="M1 .75l7.5 7.5L16 .75" stroke="#BDBDBD"/></svg><svg fill="none" viewBox="0 0 50 50" id="icon-close" xmlns="http://www.w3.org/2000/svg"><path d="M26.945 25L49.583 2.361c.278-.278.417-.555.417-.972C50 .556 49.444 0 48.611 0c-.417 0-.694.139-.972.417L25 23.056 2.361.416C2.083.14 1.806 0 1.39 0 .556 0 0 .556 0 1.389c0 .417.139.694.417.972L23.055 25 .417 47.639c-.278.278-.417.555-.417.972C0 49.444.556 50 1.389 50c.417 0 .694-.139.972-.417L25 26.944l22.639 22.64c.278.277.555.416.972.416.833 0 1.389-.556 1.389-1.389 0-.417-.139-.694-.417-.972L26.945 25z" fill="currentColor"/></svg><svg fill="none" viewBox="0 0 30 30" id="icon-facebook" xmlns="http://www.w3.org/2000/svg"><path d="M22.5 3.75h-4.23a5.77 5.77 0 00-5.77 5.77v2.98h-5v5h5v8.75h5V17.5h5v-5h-5V9.904c0-.637.517-1.154 1.154-1.154H22.5v-5z" fill="currentColor"/></svg><svg fill="none" viewBox="0 0 30 30" id="icon-instagram" xmlns="http://www.w3.org/2000/svg"><path fill-rule="evenodd" clip-rule="evenodd" d="M8.266 2.499a5.77 5.77 0 00-5.769 5.77v13.46a5.77 5.77 0 005.77 5.77h13.46a5.77 5.77 0 005.77-5.77V8.27a5.77 5.77 0 00-5.77-5.77H8.268zm14.231 6.25a1.25 1.25 0 100-2.5 1.25 1.25 0 000 2.5zm-1.25 6.25a6.25 6.25 0 11-12.5 0 6.25 6.25 0 0112.5 0zm-6.25 3.75a3.75 3.75 0 100-7.5 3.75 3.75 0 000 7.5z" fill="currentColor"/></svg><svg fill="none" viewBox="0 0 30 30" id="icon-linkedin" xmlns="http://www.w3.org/2000/svg"><path fill-rule="evenodd" clip-rule="evenodd" d="M7.497 4.999a2.5 2.5 0 11-5 0 2.5 2.5 0 015 0zm0 5.625v16.875h-5V10.624h5zm3.75 0h5v1.052a7.5 7.5 0 0110 7.073v8.75h-5v-8.75a2.5 2.5 0 00-5 0v8.75h-5V10.624z" fill="currentColor"/></svg><svg fill="none" viewBox="0 0 11 20" id="icon-play" xmlns="http://www.w3.org/2000/svg"><path d="M11 10L.5.474v19.052L11 10z" fill="#fff"/></svg><svg fill="none" viewBox="0 0 28 28" id="icon-size" xmlns="http://www.w3.org/2000/svg"><path d="M27.726 24.615l-1.866-1.826a.948.948 0 00-1.32 0 .899.899 0 000 1.291l.274.268H6.92l.273-.267a.899.899 0 000-1.292.948.948 0 00-1.32 0l-1.866 1.826a.917.917 0 00-.274.646c0 .228.096.472.274.646l1.867 1.826a.948.948 0 001.32 0 .899.899 0 000-1.291l-.274-.268h17.894l-.274.268a.899.899 0 000 1.29.948.948 0 001.32 0l1.866-1.825a.917.917 0 00.274-.646.91.91 0 00-.274-.646zM4.007 19.137l-.274.267V3.117l.274.268a.948.948 0 001.32 0 .899.899 0 000-1.291L3.46.267a.948.948 0 00-1.32 0L.274 2.094a.899.899 0 000 1.29.948.948 0 001.32 0l.273-.267v16.287l-.274-.267a.948.948 0 00-1.32 0 .899.899 0 000 1.291l1.867 1.826a.948.948 0 001.32 0l1.867-1.826a.899.899 0 000-1.291.948.948 0 00-1.32 0zM23.334 7.304H28V.914A.923.923 0 0027.067 0H14.31v7.304h4.667c.515 0 .933.409.933.913a.923.923 0 01-.933.913H14.31v2.74a.923.923 0 01-.933.913.923.923 0 01-.933-.913V0H8.4a.923.923 0 00-.933.913v18.87c0 .504.418.913.933.913h4.045V16.13c0-.504.418-.913.933-.913.515 0 .933.409.933.913v4.566h12.756a.923.923 0 00.933-.914V9.13h-4.666a.923.923 0 01-.934-.913c0-.504.418-.913.934-.913z" fill="#BDBDBD"/></svg><svg fill="none" viewBox="0 0 28 28" id="icon-stairs" xmlns="http://www.w3.org/2000/svg"><path d="M26.148 9.612h-1.326V3.541l1.558-.698a.524.524 0 00.265-.697.531.531 0 00-.698-.27c-1.785.804-6.804 3.038-11.844 5.315-3.635 1.638-12.558 5.801-12.706 5.923a.52.52 0 00-.074.718.53.53 0 00.734.106c.143-.1.761-.407 1.744-.872v8.237H2.47a.64.64 0 00-.64.64v4.225h24.956V10.252a.64.64 0 00-.64-.64zM6.822 18.986v2.317H4.857v-8.734a734.68 734.68 0 013.93-1.806v7.584H7.463a.64.64 0 00-.64.64zm4.992-2.877v2.238h-1.97v-8.065c1.237-.565 2.563-1.168 3.936-1.791v6.979h-1.327a.64.64 0 00-.64.64zm4.99-2.61v1.97h-1.967V8.016c1.289-.58 2.615-1.178 3.936-1.77v6.615h-1.329a.64.64 0 00-.64.639zm4.992-3.247v2.607h-1.967V5.776c1.337-.602 2.663-1.199 3.936-1.764v5.601h-1.33a.64.64 0 00-.639.64z" fill="#BDBDBD"/></svg><svg fill="none" viewBox="0 0 30 30" id="icon-telegram" xmlns="http://www.w3.org/2000/svg"><path d="M3.622 13.495l19.236-8.313a1.25 1.25 0 011.73 1.343l-2.63 16.595c-.162 1.025-1.431 1.417-2.143.662l-4.317-4.572a2.5 2.5 0 01-.156-3.25l3.048-3.922c.174-.224-.101-.519-.337-.36l-6.06 4.064a5 5 0 01-3.5.796l-4.554-.658c-1.248-.18-1.474-1.885-.317-2.385z" fill="currentColor"/></svg><svg fill="none" viewBox="0 0 30 30" id="icon-youtube" xmlns="http://www.w3.org/2000/svg"><path fill-rule="evenodd" clip-rule="evenodd" d="M6.04 3.75a4.615 4.615 0 00-4.615 4.615v13.27A4.615 4.615 0 006.04 26.25h17.92a4.615 4.615 0 004.615-4.615V8.365a4.615 4.615 0 00-4.616-4.615H6.04zm13.146 10.218l-6.266-3.133a1.154 1.154 0 00-1.67 1.032v6.266c0 .858.902 1.416 1.67 1.032l6.266-3.133c.85-.425.85-1.639 0-2.064z" fill="currentColor"/></svg></svg>